<svg clip-rule="evenodd" fill-rule="evenodd" height="300" image-rendering="optimizeQuality" shape-rendering="geometricPrecision" text-rendering="geometricPrecision" viewBox="0 0 850 850" width="300" xmlns="http://www.w3.org/2000/svg" version="1.1" xmlns:xlink="http://www.w3.org/1999/xlink" xmlns:svgjs="http://svgjs.dev/svgjs"><g width="100%" height="100%" transform="matrix(1,0,0,1,0,0)"><g id="Layer_x0020_1"><circle cx="425" cy="425" fill="#000000" r="425" fill-opacity="1" data-original-color="#ffbe00ff" stroke="none" stroke-opacity="1"/><g id="_312529224"><g><g id="_312528744"><path d="m428 619c-50 0-97-4-132-10-17-3-31-7-41-11-4-2-18-8-18-19v-1-76l-67-128c-2-3-1-6 1-8 3-2 6-3 9-1l81 48c6 3 8 1 8 0 3-2 11-14 2-67-5-30-13-57-13-57-1-4 0-7 4-9 3-1 7 0 9 4 21 41 43 60 59 69 15 9 26 9 28 9 20-2 40-38 54-96 2-9 3-15 4-20 0-3 1-6 1-7 1-5 4-8 8-8 6 0 8 6 8 8 1 3 2 6 4 11 1 4 2 8 3 14 6 19 15 47 28 68 13 22 26 32 39 28s40-9 73-76c1-3 5-4 9-3 3 1 5 5 4 8-11 39-23 106-9 122 2 2 5 3 10 3 6-5 35-25 56-38 6-5 11-8 15-10 3-1 9-5 13-1 5 4 2 10 1 13-1 2-2 5-5 9-1 4-3 8-6 12-16 33-44 88-49 98v81 1c0 11-14 17-19 19-10 4-23 8-41 11-35 6-82 10-131 10zm-177-41c0 2 7 10 51 18 34 6 79 9 126 9s91-3 125-9c44-8 51-16 52-18-1-1-8-9-52-17-34-6-78-9-125-9-46 0-89 3-123 8-47 8-54 17-54 18zm177-40c49 0 96 3 131 10 18 3 31 7 41 11 1 0 3 1 5 2v-66c0-1 0-2 1-3 0-1 32-63 50-99 1-2 2-5 3-7 0 0-1 1-2 1-22 15-56 39-56 39-1 1-2 1-3 1-12 3-20-2-24-6-11-12-13-38-7-80 1-4 2-8 2-13-28 38-56 45-59 46-20 5-38-7-54-34-13-23-23-52-29-73 0 0 0-1-1-1v3c-9 39-30 104-67 107h-1c-2 0-39 1-76-48 1 5 2 10 2 16 8 43 6 69-5 79-4 4-12 8-24 3h-1l-60-36 56 107c0 1 1 3 1 4v60c8-4 24-10 52-14 34-6 79-9 125-9z" fill="#fefefe" fill-opacity="1" data-original-color="#fefefeff" stroke="none" stroke-opacity="1"/></g><g id="_312528936"><path d="m612 502h-114c-4 0-7-3-7-7s3-7 7-7h114c4 0 7 3 7 7s-3 7-7 7z" fill="#fefefe" fill-opacity="1" data-original-color="#fefefeff" stroke="none" stroke-opacity="1"/></g><g id="_312528912"><path d="m458 481c-1 0-2 0-3-1l-30-16-30 16c-2 2-5 1-7 0-3-2-4-4-3-7l6-34-25-23c-2-2-2-5-1-7 0-3 3-5 5-5l34-4 15-31c1-3 3-4 6-4s5 1 6 4l15 31 34 4c2 0 5 2 5 5 1 2 1 5-1 7l-25 23 6 34c1 3 0 5-3 7-1 1-2 1-4 1zm-33-32c1 0 2 0 3 1l21 11-5-23c0-2 1-5 2-6l17-16-23-3c-2 0-4-2-5-4l-10-21-10 21c-1 2-3 4-5 4l-23 3 17 16c1 1 2 4 2 6l-5 23 21-11c1-1 2-1 3-1z" fill="#fefefe" fill-opacity="1" data-original-color="#fefefeff" stroke="none" stroke-opacity="1"/></g><g><g id="_312529032"><path d="m387 526h-24c-4 0-7-3-7-7s3-7 7-7h24c4 0 7 3 7 7s-3 7-7 7z" fill="#fefefe" fill-opacity="1" data-original-color="#fefefeff" stroke="none" stroke-opacity="1"/></g><g id="_312529080"><path d="m437 526h-24c-4 0-7-3-7-7s3-7 7-7h24c4 0 7 3 7 7s-3 7-7 7z" fill="#fefefe" fill-opacity="1" data-original-color="#fefefeff" stroke="none" stroke-opacity="1"/></g><g id="_312529344"><path d="m487 526h-24c-4 0-7-3-7-7s3-7 7-7h24c4 0 7 3 7 7s-3 7-7 7z" fill="#fefefe" fill-opacity="1" data-original-color="#fefefeff" stroke="none" stroke-opacity="1"/></g></g></g></g></g></g></svg>