<svg enable-background="new 0 0 492 492" height="300" viewBox="0 0 492 492" width="300" xmlns="http://www.w3.org/2000/svg" version="1.1" xmlns:xlink="http://www.w3.org/1999/xlink" xmlns:svgjs="http://svgjs.dev/svgjs"><g width="100%" height="100%" transform="matrix(1,0,0,1,0,0)"><g id="Layer_2"><path clip-rule="evenodd" d="m246.26.98c135.21 0 245.76 110.549 245.76 245.76 0 135.21-110.549 245.76-245.76 245.76-135.21 0-245.76-110.55-245.76-245.76 0-135.21 110.55-245.76 245.76-245.76z" fill="#000000" fill-rule="evenodd" fill-opacity="1" data-original-color="#ffb300ff" stroke="none" stroke-opacity="1"/></g><g id="Layer_1"><g><g clip-rule="evenodd" fill="#fffffe" fill-rule="evenodd"><path d="m136.18 229.594h68.835l-30.785-50.308z" fill="#fffffe" fill-opacity="1" data-original-color="#fffffeff" stroke="none" stroke-opacity="1"/><path d="m179.855 176.962 30.522 49.88 30.521-49.88z" fill="#fffffe" fill-opacity="1" data-original-color="#fffffeff" stroke="none" stroke-opacity="1"/><path d="m215.74 229.594h61.041l-30.521-49.879z" fill="#fffffe" fill-opacity="1" data-original-color="#fffffeff" stroke="none" stroke-opacity="1"/><path d="m312.666 176.962h-61.043l30.52 49.88z" fill="#fffffe" fill-opacity="1" data-original-color="#fffffeff" stroke="none" stroke-opacity="1"/><path d="m318.29 179.286-30.784 50.308h68.835z" fill="#fffffe" fill-opacity="1" data-original-color="#fffffeff" stroke="none" stroke-opacity="1"/><path d="m252.367 381.14 104.169-145.535h-71.98z" fill="#fffffe" fill-opacity="1" data-original-color="#fffffeff" stroke="none" stroke-opacity="1"/><path d="m214.12 235.605 32.14 145.314 32.141-145.314z" fill="#fffffe" fill-opacity="1" data-original-color="#fffffeff" stroke="none" stroke-opacity="1"/><path d="m240.153 381.139-32.189-145.534h-71.979z" fill="#fffffe" fill-opacity="1" data-original-color="#fffffeff" stroke="none" stroke-opacity="1"/><g><path d="m246.26 139.618c1.66 0 3.005-1.346 3.005-3.005v-21.267c0-1.66-1.345-3.006-3.005-3.006s-3.005 1.346-3.005 3.006v21.267c0 1.659 1.346 3.005 3.005 3.005z" fill="#fffffe" fill-opacity="1" data-original-color="#fffffeff" stroke="none" stroke-opacity="1"/><path d="m224.808 148.157c1.273-1.066 1.441-2.961.376-4.234l-13.65-16.309c-1.066-1.273-2.961-1.441-4.234-.376s-1.441 2.961-.376 4.234l13.65 16.309c1.066 1.273 2.961 1.441 4.234.376z" fill="#fffffe" fill-opacity="1" data-original-color="#fffffeff" stroke="none" stroke-opacity="1"/><path d="m267.713 148.157c-1.273-1.066-1.441-2.961-.376-4.234l13.65-16.309c1.066-1.273 2.961-1.441 4.234-.376s1.441 2.961.376 4.234l-13.651 16.309c-1.065 1.273-2.961 1.441-4.233.376z" fill="#fffffe" fill-opacity="1" data-original-color="#fffffeff" stroke="none" stroke-opacity="1"/></g></g></g></g></g></svg>