<svg viewBox="0 0 512 512" xmlns="http://www.w3.org/2000/svg" width="300" height="300" version="1.1" xmlns:xlink="http://www.w3.org/1999/xlink" xmlns:svgjs="http://svgjs.dev/svgjs"><g width="100%" height="100%" transform="matrix(1,0,0,1,0,0)"><g id="Layer_2" data-name="Layer 2"><g id="Layer_copy" data-name="Layer copy"><g id="_23" data-name="23"><g id="background"><circle cx="256" cy="256" fill="#000000" r="256" fill-opacity="1" data-original-color="#ffbb17ff" stroke="none" stroke-opacity="1"/></g><path d="m345.61 396.4a5.54 5.54 0 0 1 -2.56-.63l-87.05-45.77-87 45.77a5.5 5.5 0 0 1 -8-5.8l16.59-96.97-70.43-68.65a5.5 5.5 0 0 1 3-9.38l97.33-14.15 43.53-88.19a5.49 5.49 0 0 1 9.86 0l43.53 88.19 97.38 14.18a5.5 5.5 0 0 1 3 9.38l-70.38 68.62 16.59 97a5.5 5.5 0 0 1 -5.42 6.43zm-222.79-172.11 64.52 62.89a5.49 5.49 0 0 1 1.58 4.87l-15.23 88.8 79.75-41.93a5.52 5.52 0 0 1 5.12 0l79.75 41.93-15.23-88.8a5.49 5.49 0 0 1 1.58-4.87l64.52-62.89-89.16-13a5.48 5.48 0 0 1 -4.14-3l-39.88-80.76-39.88 80.79a5.48 5.48 0 0 1 -4.14 3z" fill="#ffffff" fill-opacity="1" data-original-color="#ffffffff" stroke="none" stroke-opacity="1"/></g></g></g></g></svg>